<?xml version="1.0" standalone="no"?><!DOCTYPE svg PUBLIC "-//W3C//DTD SVG 1.1//EN" "http://www.w3.org/Graphics/SVG/1.1/DTD/svg11.dtd"><svg t="1676000554729" class="icon" viewBox="0 0 1024 1024" version="1.1" xmlns="http://www.w3.org/2000/svg" p-id="2755" xmlns:xlink="http://www.w3.org/1999/xlink" width="200" height="200"><path d="M170.666667 85.333333A51.2 51.2 0 0 1 221.866667 136.533333v750.933334a51.2 51.2 0 0 1-102.4 0V136.533333A51.2 51.2 0 0 1 170.666667 85.333333z m341.333333 0A51.2 51.2 0 0 1 563.2 136.533333v750.933334a51.2 51.2 0 0 1-102.4 0V136.533333A51.2 51.2 0 0 1 512 85.333333z m341.333333 0A51.2 51.2 0 0 1 904.533333 136.533333v750.933334a51.2 51.2 0 0 1-102.4 0V136.533333A51.2 51.2 0 0 1 853.333333 85.333333z" fill="#FFAA44" p-id="2756"></path><path d="M68.266667 204.8h204.8v273.066667H68.266667V204.8z m341.333333 341.333333h204.8v273.066667h-204.8v-273.066667zM955.733333 204.8h-204.8v273.066667h204.8V204.8z" fill="#11AA66" p-id="2757"></path><path d="M34.133333 204.8a34.133333 34.133333 0 0 1 34.133334-34.133333h204.8a34.133333 34.133333 0 0 1 34.133333 34.133333v273.066667a34.133333 34.133333 0 0 1-34.133333 34.133333H68.266667a34.133333 34.133333 0 0 1-34.133334-34.133333V204.8z m68.266667 34.133333v204.8h136.533333V238.933333H102.4z m614.4-34.133333a34.133333 34.133333 0 0 1 34.133333-34.133333h204.8a34.133333 34.133333 0 0 1 34.133334 34.133333v273.066667a34.133333 34.133333 0 0 1-34.133334 34.133333h-204.8a34.133333 34.133333 0 0 1-34.133333-34.133333V204.8z m68.266667 34.133333v204.8h136.533333V238.933333h-136.533333z m-409.6 307.2a34.133333 34.133333 0 0 1 34.133333-34.133333h204.8a34.133333 34.133333 0 0 1 34.133333 34.133333v273.066667a34.133333 34.133333 0 0 1-34.133333 34.133333h-204.8a34.133333 34.133333 0 0 1-34.133333-34.133333v-273.066667z m68.266666 34.133334v204.8h136.533334v-204.8h-136.533334z" fill="#11AA66" p-id="2758"></path></svg>