<?xml version="1.0" encoding="UTF-8"?>
<svg width="56px" height="56px" viewBox="0 0 56 56" version="1.1" xmlns="http://www.w3.org/2000/svg" xmlns:xlink="http://www.w3.org/1999/xlink">
    <g id="活动期拿到" stroke="none" stroke-width="1" fill="none" fill-rule="evenodd">
        <g id="签到成功" transform="translate(-287.000000, -114.000000)">
            <g id="success" transform="translate(287.000000, 114.000000)">
                <path d="M27.7385063,5.6 C34.6677077,5.6 40.849154,8.82630331 44.9193016,13.8708389 L49.9886736,12.5088616 C50.6180223,12.3379552 51.2905831,12.4451086 51.835389,12.803083 C52.3915946,13.1629223 52.786663,13.7330205 52.9442664,14.4096594 L55.9267153,27.3137765 C56.084749,27.9860494 55.9851692,28.6930239 55.6475525,29.2957145 C55.315384,29.8919188 54.7754335,30.3216091 54.1471403,30.488123 L49.3596061,31.774821 C47.3962576,42.1487233 38.3931785,49.9902439 27.5800388,49.9902439 C20.8493079,49.9902439 14.8207826,46.9469912 10.7537909,42.149832 L6.00885922,43.4246962 C5.80359211,43.4784261 5.59205302,43.5045279 5.37985932,43.502439 C4.30490556,43.4832582 3.33101583,42.6944342 3.05821362,41.5231928 L0.071524209,28.6197812 C-0.250749897,27.2213472 0.546454471,25.7989239 1.85109921,25.4447292 L5.86022738,24.3673222 C7.6081291,13.7212017 16.7365051,5.6 27.7385063,5.6 Z M48.4321218,32.0241299 L47.5809067,32.2529189 C45.402892,41.2550678 37.3557179,47.9414634 27.7520001,47.9414634 C21.9394124,47.9414634 16.6962496,45.4886071 12.9737346,41.5528245 L11.6706896,41.9032877 C15.5764273,46.3321509 21.2563353,49.1228844 27.5807431,49.1228844 C37.8312476,49.1228844 46.3875693,41.7947923 48.4321218,32.0241299 Z M47.1052754,32.3804154 L13.4467659,41.4258523 C17.0752693,45.1777924 22.1414061,47.5071977 27.7477468,47.5071977 C37.0668712,47.5071977 44.8931952,41.0779149 47.1052754,32.3804154 Z M32.8894262,40.7707317 L33.070106,42.3213347 L34.4878049,43.0900097 L33.0176264,43.6900768 L32.7274892,45.2097561 L31.6471591,44.0317101 L30.0487805,44.1995817 L30.8479698,42.8713349 L30.1492414,41.4576798 L31.7236294,41.8125661 L32.8894262,40.7707317 Z M25.7189644,40.4292683 L25.8988641,41.9798713 L27.3170732,42.7485463 L25.8463934,43.3486134 L25.5563051,44.8682927 L24.4769071,43.6902467 L22.8780488,43.8581183 L23.6778527,42.5298715 L22.9784928,41.1162163 L24.5526149,41.4711027 L25.7189644,40.4292683 Z M49.9118821,13.1676591 L1.96410426,26.2071525 C1.06283024,26.4509873 0.510095781,27.4511355 0.731893684,28.4300189 L3.70116911,41.4333624 C3.92859998,42.4122459 4.84113992,43.0069477 5.74523042,42.7659482 L10.2544878,41.5393659 L10.2439024,41.5261598 L11.1446547,41.2837568 L11.1539109,41.2950739 L12.4250723,40.9493869 L12.2926829,40.7964026 L12.7534568,40.6716136 L12.8873631,40.823368 L47.3159024,31.4597073 L47.3426864,31.3302666 L47.804878,31.2097561 L47.7812215,31.333641 L53.6930083,29.7257459 C54.1309712,29.6087903 54.498522,29.3110849 54.7322899,28.8907534 C54.9652551,28.4687066 55.0340199,27.9745388 54.9252189,27.5042971 L51.9559435,14.499536 C51.8568581,14.0372511 51.5812005,13.6327145 51.1884523,13.3732175 C50.8119891,13.1233511 50.3469856,13.0484744 49.9118821,13.1676591 Z M51.1369435,13.9162417 C51.4231086,14.1041598 51.6247465,14.3962308 51.699033,14.7304242 L54.6775426,27.5885752 C54.7580429,27.928936 54.7064945,28.2911871 54.5363141,28.59271 C54.3731563,28.8886329 54.0969499,29.105725 53.7708555,29.1943436 L5.6846611,42.0793281 C5.02088703,42.2579821 4.35146382,41.826529 4.1855203,41.1161495 L1.20559842,28.2587046 C1.04106719,27.5490312 1.44568691,26.8315903 2.10946098,26.6529363 L50.2005984,13.7679518 C50.5196283,13.6825222 50.8599225,13.736415 51.1369435,13.9162417 Z M39.0357677,37.3560976 L39.2067012,38.9022829 L40.6341463,39.6753755 L39.1647176,40.2754427 L38.8738306,41.795122 L37.7942503,40.617076 L36.195122,40.7849476 L36.995061,39.4567007 L36.2955829,38.0430456 L37.8699709,38.3979319 L39.0357677,37.3560976 Z M16.4170418,31.9988861 C16.3854531,32.8783963 16.2847543,33.6477472 16.1266552,34.3136995 L11.0565341,35.6722344 L11.2965666,36.5680481 L19.1649513,34.4597208 L18.9249187,33.563907 L17.1609968,34.0365485 C17.3105238,33.4124861 17.4057881,32.7336756 17.440029,32.0118267 L16.4170418,31.9988861 Z M12.3271773,33.173948 L11.5265454,33.6953224 C11.9514119,34.1357818 12.3258163,34.6095589 12.658994,35.1141793 L13.4701872,34.6691609 C13.0987427,34.0956082 12.7169145,33.5941255 12.3271773,33.173948 Z M14.4110157,32.4176201 L13.6011486,32.9414691 C13.9872628,33.4220069 14.3321502,33.9333879 14.6475205,34.4823727 L15.4494785,34.0398289 C15.1050765,33.4194371 14.7620006,32.877876 14.4110157,32.4176201 Z M22.1392735,29.0105759 L21.1695782,29.270405 L21.419509,30.2031595 L19.747939,30.6510553 L19.9953953,31.5745747 L21.6669653,31.1266788 L22.052997,32.567369 C21.3968129,32.8520737 20.7172093,33.1232572 20.0258959,33.3876801 L20.504232,34.2493354 C22.093656,33.605689 23.5666455,32.9338516 24.9281497,32.2522937 L24.6707952,31.2918336 C24.1143867,31.5794983 23.5579782,31.867163 22.9781502,32.1413064 L22.6366605,30.8668498 L24.1604674,30.4585469 L23.9130112,29.5350276 L22.3892043,29.9433304 L22.1392735,29.0105759 Z M13.8962115,29.3881214 L13.3051591,29.5464934 C12.4527866,30.5766442 11.3096594,31.5560252 9.85730714,32.4895856 L10.5534872,33.2037855 C10.9891751,32.9088748 11.3829731,32.6053919 11.7583008,32.3068582 L11.9364693,32.9717921 L16.8034161,31.6676976 L16.6301968,31.0212341 C17.0952717,31.0945826 17.5855777,31.1512723 18.1103498,31.1888285 L18.3586341,30.2314584 C16.7388046,30.1705779 15.2566624,29.8847375 13.8962115,29.3881214 Z M26.2038814,23.7147111 L25.224951,23.9770147 L27.1575843,31.1897007 C27.2169738,31.4113453 27.1383208,31.5610976 26.9259114,31.6180125 C26.5287981,31.7244187 26.1082652,31.8173036 25.6550777,31.8991419 L26.117418,32.7749815 L27.4934618,32.4062716 C28.1399253,32.2330523 28.3765474,31.8232108 28.203328,31.1767473 L26.2038814,23.7147111 Z M13.8085485,30.2430637 C14.5325642,30.5439767 15.3273238,30.7764428 16.1835922,30.9429364 L12.0831664,32.0416422 C12.7759359,31.4501869 13.3479849,30.8514856 13.8085485,30.2430637 Z M33.8393971,21.5500019 L33.3857718,22.2951402 C33.8201812,22.475688 34.1899443,22.6735578 34.4901118,22.8702792 L33.1879496,23.2191925 C33.0556493,22.7993227 32.9276351,22.358508 32.8014324,21.8875131 L31.822502,22.1498168 L31.9706533,22.6979966 C32.0450004,22.9683713 32.1204038,23.2320488 32.1997839,23.4839707 L28.3948843,24.5034905 L29.2189136,27.5788098 C29.5920872,29.0823348 29.6108304,30.3343904 29.2634337,31.3282158 L30.1687079,31.7884241 C30.6001922,30.5543059 30.6101253,29.0768051 30.1960326,27.3466863 L31.4981949,26.997773 L31.6304462,27.5429958 C31.7800445,28.1745178 31.860635,28.5812979 31.8618255,28.7612095 C31.8651408,28.9582862 31.7882993,29.0778583 31.6430108,29.1266865 C31.3844253,29.1959743 31.0747148,29.2591645 30.6978834,29.3304414 L31.2284931,30.1285987 C31.5129725,30.0820674 31.7672719,30.0337246 31.9889165,29.9743351 C32.4851424,29.8314736 32.7564083,29.5509248 32.8002398,29.1234537 C32.8434082,28.6565672 32.6487109,27.5605392 32.2161478,25.8353696 L29.9535255,26.4416374 L29.6095613,25.1579455 L32.4909416,24.385882 C32.8617706,25.4743087 33.2409942,26.3724193 33.6421334,27.0567944 C33.8451776,27.4082172 34.0500333,27.7294597 34.2659357,28.0180476 C33.854378,28.9201842 33.2665108,29.681496 32.5023343,30.301983 L33.2742074,30.9662063 C33.9744006,30.4024565 34.5401744,29.7064542 34.9715286,28.8781991 C35.1367913,29.0516786 35.3155753,29.2017386 35.4894101,29.3333282 C36.0879338,29.756951 36.5869895,29.920177 36.993338,29.8112962 C37.4550977,29.6875681 37.6211059,28.9403105 37.5123076,27.5738097 L36.5179967,27.3354237 L36.5520036,27.6153809 C36.6360507,28.3503797 36.6335591,28.7298069 36.551102,28.7519012 C36.4125741,28.7890197 36.1549595,28.6402858 35.7899679,28.3124602 C35.6604975,28.1986779 35.5236034,28.0571901 35.3909954,27.8947573 C35.7341062,26.9218768 35.9286131,25.8007478 35.9745162,24.5313703 L34.9957157,24.3878108 C34.9783113,25.2833168 34.8739895,26.113028 34.6778012,26.8584741 C34.6300781,26.7788778 34.5834548,26.703386 34.5392012,26.6257929 L34.474757,26.5070513 C34.173571,25.9740624 33.8400381,25.1725897 33.4791073,24.1211038 L36.1942541,23.3935824 L35.9492724,22.4792983 L34.8502844,22.7737712 L35.1587988,22.2258873 C34.776663,21.9818415 34.3391159,21.7526431 33.8393971,21.5500019 Z M24.607259,25.0333673 L23.6745045,25.2832982 L25.1864622,30.9260012 L26.1192167,30.6760704 L24.607259,25.0333673 Z M13.1781981,27.9275047 L10.9340462,28.5288234 L10.9621179,28.1037192 C10.964773,28.0547538 10.9669848,28.0052885 10.9684648,27.9554007 L9.98126988,28.0021573 C9.96320243,28.858248 9.76900325,29.72194 9.38696259,30.5864728 L10.3684152,30.8876936 C10.5464885,30.444049 10.6986678,29.9776479 10.8015334,29.4749691 L11.3741154,29.3215463 C11.6017275,29.6168948 11.8158184,29.9356628 12.0231487,30.2661406 L12.8046472,29.7102999 C12.6713761,29.5084518 12.5054504,29.295557 12.3253403,29.0666663 L13.4058579,28.7771425 L13.1781981,27.9275047 Z M22.916508,24.8925077 L18.2527354,26.1421618 L18.4952425,27.0472107 L19.8251103,26.6908737 L19.7710858,26.9424324 C19.5642558,27.8775297 19.3608811,28.4765859 19.1753443,28.7357473 C19.0928906,28.7974337 18.9827313,28.8665438 18.821447,28.9295563 L19.2639907,29.7315144 C20.5752105,29.2317003 21.7866547,28.7289263 22.8866135,28.2164318 C23.0752957,28.4034325 23.2547427,28.5929078 23.4249545,28.7848577 L24.0799426,28.0154592 C23.5983388,27.5110165 22.9485124,26.9328699 22.1237027,26.2927293 L21.5110899,26.9616891 C21.7675561,27.1800185 22.0147871,27.4008224 22.2503083,27.6148657 C21.6150691,27.9038565 20.9724063,28.1651418 20.3272689,28.4171918 C20.5139143,27.9316573 20.6904838,27.2607559 20.859452,26.4137227 L23.1590151,25.7975566 L22.916508,24.8925077 Z M17.3432703,26.811477 L14.8035922,27.4919817 C14.8144612,27.3109008 14.8228557,27.1205848 14.8287756,26.9210336 L13.8600511,26.962841 C13.8535157,27.6772662 13.7170246,28.3869199 13.4481031,29.0825669 L14.4018502,29.3912114 C14.5080311,29.0856093 14.6025023,28.7732466 14.6710794,28.4381274 L15.3544837,28.2550098 C15.63817,28.5749263 15.9150958,28.9065525 16.1667905,29.2548376 L16.952575,28.678052 C16.7749395,28.4583965 16.5738845,28.2252198 16.3426494,27.9902316 L17.5709301,27.6611148 L17.3432703,26.811477 Z M42.4368766,19.3551949 L41.4579462,19.6174985 L41.9305876,21.3814205 L40.5730142,21.7451812 L40.8254196,22.6871709 L42.182993,22.3234102 L42.1978404,22.3788213 C42.812858,24.7479799 42.6174279,26.6414198 41.6207853,28.0566664 L42.6006041,28.5364935 C43.6635269,26.9253187 43.8525041,24.7861516 43.1767708,22.1165177 L43.1619235,22.0611065 L44.5194969,21.6973458 L44.9859578,23.5104229 L45.1875921,24.3140999 L45.3830345,25.122828 C45.4841109,25.5553361 45.5454847,25.8510302 45.5661068,26.0096957 C45.5912078,26.3988999 45.3476474,26.672025 44.8489469,26.8056514 C44.5811263,26.8774137 44.2529454,26.945553 43.876114,27.0168299 L44.349501,27.8600148 L44.9378879,27.7401704 C45.0736781,27.7112464 45.1809644,27.6867161 45.2576876,27.6661582 C46.2089125,27.4112782 46.6554694,26.9352867 46.5973584,26.2381834 L46.5838414,26.1451296 C46.4597806,25.3411259 46.0007957,23.4576693 45.2090812,20.5029507 L42.9095181,21.1191168 L42.4368766,19.3551949 Z M40.1951168,20.9259012 L36.7688601,21.8439639 L37.0187909,22.7767184 L38.2470716,22.4476016 L39.3507265,26.5664978 C38.9321829,26.7776287 38.5019295,26.981999 38.0784367,27.1746596 L38.5900905,28.0867769 C39.7213779,27.5064983 40.7614618,26.8813699 41.7245265,26.2273875 L41.4646974,25.2576922 C41.0659503,25.5427047 40.662254,25.8092468 40.2536086,26.0573185 L39.2167669,22.1877725 L40.4450476,21.8586557 L40.1951168,20.9259012 Z M27.7385063,6.4673919 C17.2954457,6.4673919 8.61217864,14.0780602 6.77569944,24.1211921 L7.53556015,23.9166587 C9.37204219,14.453864 17.638394,7.30802707 27.5670748,7.30731707 C33.6731862,7.30731707 39.1516667,10.0135011 42.894531,14.3018402 L42.9741951,14.3937073 L44.0133876,14.1143741 C40.1439942,9.48992207 34.3914581,6.53306771 27.9539157,6.46847221 L27.7385063,6.4673919 Z M27.5670748,7.74156029 C17.971891,7.73732873 9.96026006,14.5511699 8.02621277,23.6416449 L7.99502439,23.7935122 L42.5108131,14.5182864 C38.8895793,10.4097852 33.6383711,7.80369691 27.7776511,7.7426603 L27.5670748,7.74156029 Z M15.9610499,14.1365854 L16.9639024,15.2767317 L18.4390244,15.0633021 L17.7012364,16.4127831 L18.353895,17.8076125 L16.8967637,17.4989507 L15.8212959,18.5756098 L15.6552936,17.0352266 L14.3414634,16.3081892 L15.6999865,15.6630714 L15.9610499,14.1365854 Z M21.7656476,10.7219512 L22.7685819,11.8627878 L24.2439024,11.6492466 L23.5062422,12.9985052 L24.1587878,14.3931048 L22.7011995,14.0844939 L21.626627,15.1609756 L21.4599442,13.6208462 L20.1463415,12.8939286 L21.5053387,12.2489171 L21.7656476,10.7219512 Z M28.5949159,10.3804878 L29.5978502,11.5215124 L31.0721463,11.3034634 L30.3348012,12.6574169 L30.9873468,14.0522463 L29.5304678,13.7428531 L28.455186,14.8195122 L28.2885032,13.2798605 L26.9756098,12.552823 L28.3338977,11.9077053 L28.5949159,10.3804878 Z" id="形状" fill="#1BC096" fill-rule="nonzero"></path>
                <rect id="矩形" x="0" y="0" width="56" height="56"></rect>
            </g>
        </g>
    </g>
</svg>